<svg width="23" height="16" viewBox="0 0 23 16" fill="none" xmlns="http://www.w3.org/2000/svg">
<path d="M11.3206 15.3888C8.44708 15.4232 5.57449 15.2659 2.72191 14.9182C2.25798 14.7924 1.83504 14.5475 1.49516 14.2076C1.15528 13.8677 0.910294 13.4448 0.784573 12.9808C0.473044 11.2361 0.321747 9.46647 0.332574 7.69415C0.322429 5.9223 0.473721 4.15321 0.784573 2.40882C0.913284 1.94448 1.15899 1.52093 1.49819 1.17869C1.83739 0.836461 2.25873 0.586991 2.72191 0.454149C5.57545 0.118957 8.4476 -0.0324659 11.3206 0.000815856C14.1941 -0.0339504 17.0667 0.123289 19.9192 0.471483C20.3832 0.597081 20.8062 0.842023 21.1461 1.18192C21.486 1.52182 21.731 1.94482 21.8566 2.40882C22.1778 4.15814 22.3296 5.93436 22.3099 7.71282C22.3201 9.48467 22.1688 11.2538 21.8579 12.9982C21.7319 13.462 21.4866 13.8848 21.1465 14.2244C20.8064 14.5641 20.3833 14.8088 19.9192 14.9342C17.0657 15.2698 14.1936 15.4217 11.3206 15.3888ZM9.13257 4.40082V10.9888L14.8526 7.69415L9.13257 4.40082Z" fill="#E77E23"/>
</svg>
